<svg xmlns="http://www.w3.org/2000/svg" viewBox="0 0 64 64" x="0px" y="0px"><title>_</title><g data-name="Dog Lover"><path d="M29.30518,30.79688a.9986.9986,0,0,1-.87159-.50831.49765.49765,0,0,0-.86718,0,.99986.99986,0,1,1-1.74121-.98339,2.49709,2.49709,0,0,1,4.3496,0,1.00009,1.00009,0,0,1-.86962,1.4917Z"></path><path d="M37.30518,30.79688a.9986.9986,0,0,1-.87159-.50831.49765.49765,0,0,0-.86718,0,.99986.99986,0,1,1-1.74121-.98339,2.49709,2.49709,0,0,1,4.3496,0,1.00009,1.00009,0,0,1-.86962,1.4917Z"></path><path d="M59.46924,17.65771a11.87042,11.87042,0,0,0-6.52686-8.06982,15.4464,15.4464,0,0,0-13.35449-.42383,19.74543,19.74543,0,0,0-7.58984,5.897,18.74045,18.74045,0,0,0-7.57178-5.835l.021-.04638a15.46551,15.46551,0,0,0-13.38916.40674,11.87116,11.87116,0,0,0-6.52735,8.07128C.83838,36.49707,28.12891,53.99512,31.25293,55.92822a1.409,1.409,0,0,0,1.49414,0C35.87109,53.99512,63.16162,36.49707,59.46924,17.65771ZM32,54.03711a91.03325,91.03325,0,0,1-8.6402-6.25269,15.09583,15.09583,0,0,1,2.66541-3.7456,17.70525,17.70525,0,0,0,4.8078.62085c.3872,0,.748-.00977,1.07226-.0249l.09815-.00391.09668.00391a18.82246,18.82246,0,0,0,5.8786-.5915,15.06617,15.06617,0,0,1,2.66119,3.74134A91.04954,91.04954,0,0,1,32,54.03711ZM20.127,34.99951c-.00543.10645-.00567.217-.00958.32489-1.4986.01044-2.59778-.23858-3.00946-.70624a4.40841,4.40841,0,0,1-.53516-3.74267c.56348-2.8584,2.5918-6.12549,4.34034-6.99072a7.87238,7.87238,0,0,1,3.14593-.63514,32.01161,32.01161,0,0,0-1.95257,4.55506l-.08887.23974C20.83057,31.2583,20.23486,32.87109,20.127,34.99951Zm1.99707.10156c.09278-1.82324.65332-3.34082,1.77-6.36377l.08838-.24023c1.40772-3.813,2.0166-4.95312,3.2583-6.09912,1.06641-.98438,2.94434-1.02149,4.31543-1.04883l.41162-.01123.4961.01123c1.3667.02588,3.23828.061,4.29834,1.03955,1.2417,1.146,1.85107,2.28613,3.2583,6.09912l.09082.24659c1.11523,3.01953,1.6748,4.53515,1.76758,6.35693.11377,2.2334-.14795,4.04492-1.79493,5.624-1.32885,1.273-3.88494,1.95612-7.084,1.93311V37.35938a3.11907,3.11907,0,0,0,1.02979-.792,3.8718,3.8718,0,0,0,.88281-2.00732,1.00059,1.00059,0,0,0-.30762-.82715A3.51671,3.51671,0,0,0,32,32.812a3.52186,3.52186,0,0,0-2.60791.918,1.0006,1.0006,0,0,0-.30762.82715,3.87841,3.87841,0,0,0,.88574,2.01074A3.1115,3.1115,0,0,0,31,37.35956v5.2915c-3.20129.03241-5.75476-.6546-7.08105-1.926C22.272,39.146,22.01025,37.335,22.124,35.10107Zm21.76178.22315c-.004-.11109-.00421-.22492-.00982-.33447-.10791-2.12647-.70313-3.7378-1.88819-6.94825l-.09131-.24609a32.11453,32.11453,0,0,0-1.94665-4.54535,7.88556,7.88556,0,0,1,3.13708.63422c1.74854.86572,3.77686,4.13281,4.34034,6.99121a4.40694,4.40694,0,0,1-.53516,3.74219C46.48029,35.08545,45.37982,35.33411,43.8858,35.32422Zm-11.37506-.05713a1.13013,1.13013,0,0,1-.51123.34961,1.12674,1.12674,0,0,1-.50976-.34961,1.769,1.769,0,0,1-.24268-.37061A3.13384,3.13384,0,0,1,32.751,34.898,1.74567,1.74567,0,0,1,32.51074,35.26709Zm9.69348,11.20923A18.65772,18.65772,0,0,0,40.669,44.0957c-.22986-.29742-.47364-.58624-.72266-.87054a6.99748,6.99748,0,0,0,1.52148-1.06647,7.615,7.615,0,0,0,2.34973-4.83594c.05591.00061.11872.00635.17371.00635,2.10986,0,3.58789-.46533,4.40186-1.38965,1.10742-1.25732,1.45166-3.14209.99658-5.45068-.68848-3.49268-3.11817-7.25977-5.416-8.397a11.51162,11.51162,0,0,0-5.49817-.81745c-.11682-.11877-.23-.23834-.35681-.3554-1.61865-1.49415-4.0249-1.53956-5.61719-1.56934l-.53369-.01074-.45166.01074c-1.5957.03174-4.00732.07959-5.63183,1.57861-.12384.11432-.23419.23126-.34851.34723a11.54632,11.54632,0,0,0-5.5094.81635c-2.29785,1.1372-4.72754,4.90429-5.416,8.397-.45508,2.30859-.11084,4.19336.99658,5.45117.814.92383,2.29248,1.38916,4.40332,1.38916.05518,0,.11811-.00574.17414-.00635a7.61706,7.61706,0,0,0,2.35077,4.84571A6.97067,6.97067,0,0,0,24.045,43.23553c-.24572.28107-.48663.56641-.714.86017a18.62557,18.62557,0,0,0-1.53521,2.38074c-8.09345-6.92-17.43824-17.53558-15.30219-28.434a9.8927,9.8927,0,0,1,5.47705-6.67627,13.76281,13.76281,0,0,1,6.2666-1.51709A12.988,12.988,0,0,1,23.648,11.01221a17.54946,17.54946,0,0,1,7.14844,5.82959,1.46588,1.46588,0,0,0,2.40722,0A17.10923,17.10923,0,0,1,39.88379,11.228l.502-.23a13.6284,13.6284,0,0,1,11.64405.36963,9.88966,9.88966,0,0,1,5.47656,6.6748C59.64221,28.9408,50.29773,39.55627,42.20422,46.47632Z"></path></g></svg>